<?xml version="1.0" standalone="no"?>
<!DOCTYPE svg PUBLIC "-//W3C//DTD SVG 20010904//EN"
 "http://www.w3.org/TR/2001/REC-SVG-20010904/DTD/svg10.dtd">
<svg version="1.0" xmlns="http://www.w3.org/2000/svg"
 width="1152.000000pt" height="1152.000000pt" viewBox="0 0 1152.000000 1152.000000"
 preserveAspectRatio="xMidYMid meet">
<metadata>
Created by potrace 1.11, written by Peter Selinger 2001-2013
</metadata>
<g transform="translate(0.000000,1152.000000) scale(0.100000,-0.100000)"
fill="#000000" stroke="none">
<path d="M3137 9054 c-1 -1 -38 -5 -82 -8 -88 -6 -202 -20 -303 -37 -139 -23
-433 -103 -542 -146 -8 -4 -17 -7 -20 -8 -3 -1 -21 -8 -41 -17 -20 -9 -47 -19
-60 -23 -13 -4 -40 -16 -59 -25 -19 -10 -39 -19 -45 -21 -21 -5 -242 -123
-293 -155 -29 -19 -54 -34 -57 -34 -13 0 -277 -190 -345 -249 -14 -12 -47 -41
-75 -64 -71 -60 -266 -257 -327 -330 -28 -34 -58 -69 -67 -78 -9 -9 -23 -26
-31 -39 -8 -12 -26 -37 -40 -55 -14 -18 -32 -43 -40 -55 -8 -12 -21 -28 -28
-36 -6 -7 -12 -15 -12 -17 0 -2 -27 -45 -60 -96 -33 -50 -68 -107 -77 -126 -9
-19 -21 -35 -25 -35 -5 0 -7 -4 -3 -9 3 -5 1 -12 -4 -15 -9 -6 -151 -292 -151
-305 0 -4 -9 -26 -20 -49 -23 -48 -131 -367 -135 -398 -1 -11 -5 -25 -8 -31
-3 -5 -9 -25 -12 -44 -3 -19 -10 -52 -15 -74 -5 -22 -11 -53 -14 -70 -3 -16
-8 -41 -11 -55 -5 -23 -20 -119 -31 -198 -9 -68 -17 -189 -18 -264 -1 -43 -3
-78 -6 -78 -3 0 -4 -26 -3 -57 2 -32 5 -110 7 -173 5 -115 11 -194 21 -260 3
-19 7 -52 10 -74 2 -21 7 -46 10 -56 3 -9 7 -37 10 -61 3 -24 10 -64 15 -89 6
-25 12 -52 14 -60 7 -35 18 -78 32 -125 8 -27 16 -59 18 -70 9 -44 80 -246
124 -350 25 -60 44 -111 42 -111 -3 -1 3 -11 13 -22 10 -11 20 -26 21 -34 1
-7 8 -24 15 -38 8 -14 32 -59 54 -100 64 -121 195 -330 242 -387 16 -19 28
-35 60 -78 16 -22 34 -45 40 -51 5 -6 22 -27 37 -46 37 -47 151 -169 223 -239
102 -99 168 -159 174 -159 3 0 22 -15 42 -33 51 -44 69 -59 109 -87 19 -13 37
-27 40 -30 3 -3 39 -28 80 -55 41 -28 77 -52 80 -55 3 -3 15 -11 28 -18 12 -6
32 -18 45 -25 12 -6 29 -17 37 -23 31 -24 250 -132 360 -179 118 -49 340 -127
340 -119 0 3 10 -1 22 -7 13 -7 32 -14 43 -15 11 -2 54 -12 95 -22 91 -22 89
-22 93 -23 1 0 11 -2 22 -4 11 -1 34 -5 50 -8 17 -3 53 -9 80 -12 28 -4 64 -9
80 -12 157 -26 524 -31 715 -9 25 3 70 8 100 12 30 3 57 7 60 9 3 2 30 6 60
10 30 4 58 9 61 11 4 2 24 6 45 10 22 3 62 12 91 20 29 8 64 17 79 20 15 3 35
9 46 15 10 5 18 8 18 5 0 -6 203 63 305 104 129 52 353 166 460 235 31 19 59
35 64 35 5 0 11 3 13 8 2 4 32 27 68 52 36 24 71 50 78 57 7 7 16 13 20 13 4
0 21 12 37 26 17 14 43 35 58 47 16 12 35 28 42 34 8 7 16 13 19 13 3 0 5
-138 5 -307 0 -170 0 -339 0 -378 l1 -70 573 1 c315 0 578 4 584 7 8 5 12 411
12 1450 0 793 1 1447 2 1452 1 6 0 15 -1 20 -2 12 -2 286 1 300 1 6 1 13 0 18
-1 4 -3 83 -6 175 -2 92 -7 183 -9 202 -3 19 -7 60 -11 90 -3 30 -7 66 -9 80
-2 14 -7 43 -10 65 -3 22 -8 51 -11 65 -3 14 -8 41 -11 60 -3 19 -10 53 -16
75 -5 22 -12 51 -15 65 -15 82 -80 291 -140 445 -39 98 -163 356 -215 447 -83
143 -195 307 -282 413 -23 27 -50 61 -61 74 -68 84 -253 272 -345 351 -29 25
-58 50 -64 56 -6 5 -49 39 -96 74 -47 35 -87 67 -90 70 -12 12 -207 135 -290
183 -74 42 -269 136 -350 169 -95 38 -180 71 -195 74 -5 2 -57 17 -115 34
-106 31 -214 58 -260 65 -14 2 -34 6 -45 8 -47 10 -143 25 -205 32 -134 14
-181 16 -348 19 -100 1 -184 1 -185 0z m363 -1565 c190 -26 348 -72 525 -155
59 -27 229 -128 251 -149 7 -5 24 -19 40 -30 42 -30 123 -101 180 -159 56 -57
194 -220 194 -230 0 -2 18 -30 39 -62 98 -148 206 -408 237 -569 2 -11 6 -31
9 -45 24 -121 29 -192 29 -360 -1 -151 -5 -223 -19 -290 -2 -14 -10 -50 -16
-80 -6 -30 -12 -59 -13 -65 -4 -20 -48 -160 -56 -180 -5 -11 -21 -49 -36 -85
-75 -186 -205 -382 -352 -534 -56 -58 -147 -140 -187 -168 -5 -4 -23 -18 -40
-31 -40 -30 -112 -77 -155 -100 -19 -11 -54 -30 -77 -42 -22 -13 -44 -21 -47
-18 -3 4 -6 1 -6 -5 0 -7 -4 -12 -9 -12 -5 0 -26 -8 -47 -17 -22 -9 -46 -18
-54 -19 -8 -2 -23 -7 -35 -13 -29 -15 -154 -51 -195 -57 -19 -3 -43 -7 -52
-10 -109 -32 -441 -37 -578 -9 -14 3 -38 8 -55 11 -16 3 -55 12 -85 20 -30 8
-66 17 -79 20 -14 3 -29 8 -35 12 -6 4 -13 7 -16 7 -32 2 -181 70 -310 142
-144 80 -310 221 -438 370 -63 74 -182 245 -182 261 0 5 -7 15 -15 22 -8 7
-13 16 -10 20 3 5 2 10 -3 12 -7 2 -54 92 -57 108 0 3 -6 15 -13 28 -7 12 -10
22 -6 22 3 0 1 6 -5 14 -27 32 -91 272 -117 436 -10 61 -11 403 -1 465 4 28 9
64 12 80 16 109 98 385 118 393 4 2 7 10 7 17 0 14 66 146 110 220 28 47 114
167 150 210 50 60 206 212 260 253 30 23 60 45 65 50 39 31 174 110 245 144
161 77 289 117 470 148 115 19 351 24 460 9z"/>
<path d="M10867 8963 c-4 -3 -116 -8 -250 -9 -133 -1 -456 -5 -717 -9 -458 -6
-914 -12 -1070 -14 -72 -1 -76 -3 -115 -39 -22 -20 -98 -89 -170 -152 -71 -62
-143 -126 -160 -142 -42 -38 -82 -75 -151 -135 -32 -28 -71 -62 -85 -75 -14
-12 -56 -50 -94 -83 -37 -33 -83 -73 -101 -90 -28 -26 -112 -101 -176 -157
-18 -16 -73 -64 -206 -183 -31 -27 -67 -60 -80 -72 -12 -13 -25 -23 -27 -23
-3 0 -20 -15 -38 -32 -19 -18 -65 -60 -102 -93 -122 -107 -158 -139 -199 -178
-22 -22 -48 -44 -57 -50 -9 -7 -41 -34 -71 -62 -30 -27 -83 -75 -117 -105
-127 -111 -114 -81 -111 -248 1 -81 4 -210 5 -287 2 -77 6 -277 10 -445 3
-168 8 -388 11 -490 3 -102 5 -194 4 -205 -2 -24 -2 7 5 -285 3 -135 8 -308
10 -385 4 -176 3 -167 15 -160 6 4 10 -23 11 -72 0 -43 2 -163 3 -267 l3 -189
35 -31 c19 -17 61 -53 93 -81 31 -27 72 -63 90 -80 17 -16 60 -55 95 -85 35
-30 73 -64 84 -75 12 -11 52 -47 91 -80 38 -33 86 -76 106 -95 21 -19 52 -48
71 -64 67 -58 162 -142 182 -161 12 -11 55 -49 96 -85 41 -36 84 -74 96 -85
20 -19 113 -101 160 -142 12 -10 54 -47 94 -83 40 -36 81 -72 90 -80 9 -8 50
-44 90 -80 40 -36 81 -72 92 -81 10 -9 50 -45 88 -79 38 -34 80 -71 92 -82 13
-11 52 -46 88 -78 85 -77 124 -110 130 -111 3 -1 84 -2 181 -3 96 -1 180 -5
185 -9 6 -3 15 -3 21 1 7 4 29 6 50 5 51 -4 146 -5 158 -3 6 1 15 1 20 0 6 -1
129 -4 275 -6 146 -1 483 -6 750 -9 798 -11 860 -12 860 -5 0 3 -28 31 -62 62
-35 31 -81 73 -104 95 -22 21 -92 85 -154 143 -63 58 -141 130 -175 161 -33
31 -76 71 -95 89 -19 18 -84 77 -143 133 -59 55 -118 109 -130 119 -12 11 -66
61 -121 111 -54 51 -113 105 -130 121 -17 15 -78 72 -136 126 -58 54 -119 111
-136 127 -17 15 -80 74 -140 129 -60 56 -129 120 -154 142 -25 22 -66 60 -91
84 -26 23 -95 88 -155 143 -59 55 -124 116 -145 135 -20 19 -74 69 -120 111
-46 43 -100 92 -120 110 -19 19 -84 79 -144 134 -59 55 -124 115 -144 134 -20
18 -61 56 -91 84 -30 27 -104 95 -164 151 -60 56 -123 114 -140 130 -17 15
-78 72 -136 126 -58 53 -129 119 -159 146 -30 27 -87 81 -128 119 l-74 71 137
129 c76 72 173 164 217 205 43 41 109 104 146 139 36 35 112 106 168 158 55
52 135 127 176 166 41 40 136 131 212 202 76 72 166 157 200 190 34 33 110
105 169 160 59 55 140 132 180 170 40 39 131 125 202 192 71 66 152 143 180
170 28 26 113 107 189 178 76 72 161 153 190 180 29 28 112 106 185 175 73 69
154 145 180 170 167 158 341 324 395 375 35 33 120 113 189 179 69 65 124 122
122 125 -5 8 -141 5 -155 -4 -6 -3 -11 -2 -11 2 0 5 -17 7 -37 5 -21 -2 -47
-3 -58 -2 -23 1 -30 1 -70 -3 -16 -1 -35 1 -41 5 -6 4 -14 5 -17 1z"/>
</g>
</svg>
