<?xml version="1.0" encoding="UTF-8"?>
<svg width="36px" height="21px" viewBox="0 0 36 21" version="1.1" xmlns="http://www.w3.org/2000/svg" xmlns:xlink="http://www.w3.org/1999/xlink">
    <!-- Generator: Sketch 50.2 (55047) - http://www.bohemiancoding.com/sketch -->
    <title>Group 5</title>
    <desc>Created with Sketch.</desc>
    <defs></defs>
    <g id="old" stroke="none" stroke-width="1" fill="none" fill-rule="evenodd">
        <g id="Artboard-5" transform="translate(-43.000000, -55.000000)" fill="#FFFFFF" fill-rule="nonzero">
            <g id="Group-5" transform="translate(43.000000, 55.000000)">
                <g id="logo-0d30c79e">
                    <polygon id="Rectangle-11" points="27.369026 0.593640187 21.1441514 6.13142761 21.3053974 13.6655662 35.2225884 0.489448001"></polygon>
                    <polygon id="Rectangle-12" points="27.5251091 20.7290117 21.3983261 15.2896794 21.275583 7.78442721 35.3786716 20.8332039"></polygon>
                    <path d="M16.712861,18.5740167 C14.9731049,20.0554502 12.742144,20.9454628 10.3095731,20.9454628 C4.75231294,20.9454628 0.247263501,16.3004539 0.247263501,10.570545 C0.247263501,4.84063603 4.75231294,0.195627081 10.3095731,0.195627081 C15.8668331,0.195627081 20.3718826,4.84063603 20.3718826,10.5705456 L20.3718826,20.9454628 L16.712861,20.9454628 L16.712861,18.5740167 Z M10.3095731,16.0822201 C13.2618675,16.0822201 15.655175,13.6145591 15.655175,10.570545 C15.655175,7.52653082 13.2618675,5.05886983 10.3095731,5.05886983 C7.35727862,5.05886983 4.9639711,7.52653082 4.9639711,10.570545 C4.9639711,13.6145591 7.35727862,16.0822201 10.3095731,16.0822201 Z" id="Combined-Shape"></path>
                </g>
            </g>
        </g>
    </g>
</svg>